<svg version="1.2" xmlns="http://www.w3.org/2000/svg" viewBox="0 0 133 92" width="133" height="92"><style>.a{fill:#fff}</style><path fill-rule="evenodd" d="m24.3 91.2q-1.8 0-3.2-0.6-1.4-0.6-2.2-1.6-0.8-1-0.8-2.3 0-1 0.4-1.9 0.5-0.8 1.3-1.4 0.8-0.5 1.8-0.7v-0.1q-1.3-0.3-2.1-1.3-0.8-1-0.8-2.3 0-1.2 0.7-2.2 0.7-1 2-1.5 1.3-0.6 2.9-0.6 1.6 0 2.9 0.6 1.3 0.5 2 1.5 0.7 1 0.8 2.2-0.1 1.3-0.9 2.3-0.8 1-2 1.3v0.1q0.9 0.2 1.7 0.7 0.8 0.6 1.3 1.4 0.4 0.9 0.5 1.9-0.1 1.3-0.9 2.3-0.8 1-2.2 1.6-1.4 0.6-3.2 0.6zm0-2.5q0.8 0 1.4-0.3 0.6-0.3 1-0.8 0.3-0.5 0.3-1.2 0-0.7-0.3-1.2-0.4-0.6-1-0.9-0.6-0.3-1.4-0.3-0.8 0-1.4 0.3-0.6 0.3-1 0.9-0.3 0.5-0.3 1.2 0 0.7 0.3 1.2 0.4 0.5 1 0.8 0.6 0.3 1.4 0.3zm0-7.2q0.7 0 1.2-0.2 0.5-0.3 0.8-0.8 0.3-0.5 0.3-1.1 0-0.7-0.3-1.1-0.3-0.5-0.8-0.8-0.5-0.2-1.2-0.2-0.7 0-1.2 0.2-0.5 0.3-0.8 0.8-0.3 0.4-0.3 1.1 0 0.6 0.3 1.1 0.3 0.5 0.8 0.8 0.5 0.2 1.2 0.2zm14.6 9.7q-1.8 0-3.2-0.6-1.4-0.6-2.2-1.6-0.8-1-0.8-2.3 0-1 0.4-1.9 0.5-0.8 1.3-1.4 0.8-0.5 1.8-0.7v-0.1q-1.3-0.3-2.1-1.3-0.8-1-0.8-2.3 0-1.2 0.7-2.2 0.8-1 2-1.5 1.3-0.6 2.9-0.6 1.7 0 2.9 0.6 1.3 0.5 2 1.5 0.8 1 0.8 2.2 0 1.3-0.8 2.3-0.8 1-2.1 1.3v0.1q1 0.2 1.7 0.7 0.8 0.6 1.3 1.4 0.5 0.9 0.5 1.9 0 1.3-0.8 2.3-0.8 1-2.2 1.6-1.5 0.6-3.3 0.6zm0-2.5q0.8 0 1.4-0.3 0.6-0.3 1-0.8 0.3-0.5 0.3-1.2 0-0.7-0.3-1.2-0.4-0.6-1-0.9-0.6-0.3-1.4-0.3-0.7 0-1.4 0.3-0.6 0.3-0.9 0.9-0.4 0.5-0.4 1.2 0 0.7 0.4 1.2 0.3 0.5 0.9 0.8 0.6 0.3 1.4 0.3zm0-7.2q0.7 0 1.2-0.2 0.6-0.3 0.9-0.8 0.3-0.5 0.3-1.1 0-0.7-0.3-1.1-0.3-0.5-0.9-0.8-0.5-0.2-1.2-0.2-0.7 0-1.2 0.2-0.5 0.3-0.8 0.8-0.3 0.4-0.3 1.1 0 0.6 0.3 1.1 0.3 0.5 0.8 0.8 0.6 0.2 1.2 0.2z"/><path fill-rule="evenodd" d="m57.1 79.5q-0.1-0.9-0.8-1.4-0.7-0.6-1.9-0.6-0.9 0-1.4 0.3-0.6 0.2-0.9 0.6-0.3 0.4-0.3 0.9 0 0.5 0.2 0.8 0.2 0.3 0.5 0.5 0.4 0.3 0.8 0.4 0.5 0.2 1 0.3l1.5 0.4q1 0.2 1.9 0.6 0.9 0.4 1.5 1 0.7 0.5 1 1.3 0.4 0.8 0.4 1.8 0 1.5-0.7 2.6-0.8 1-2.2 1.6-1.4 0.6-3.3 0.6-2 0-3.4-0.6-1.5-0.6-2.3-1.7-0.8-1.2-0.8-3h3.3q0 0.9 0.4 1.4 0.5 0.5 1.1 0.8 0.7 0.3 1.6 0.3 0.9 0 1.5-0.3 0.7-0.2 1-0.7 0.4-0.4 0.4-1 0-0.5-0.3-0.9-0.4-0.4-1-0.6-0.6-0.3-1.5-0.5l-1.7-0.5q-2-0.4-3.2-1.5-1.2-1.1-1.2-2.8 0-1.5 0.8-2.6 0.8-1.1 2.2-1.7 1.3-0.6 3.1-0.6 1.8 0 3.1 0.6 1.4 0.6 2.1 1.7 0.8 1.1 0.8 2.5zm12.1-0.6v2.5h-2.3v5.9q0 0.5 0.2 0.7 0.1 0.3 0.4 0.4 0.2 0.1 0.6 0.1 0.2 0 0.4-0.1 0.3 0 0.4 0l0.5 2.5q-0.2 0-0.7 0.1-0.4 0.1-1.1 0.2-1.2 0-2.1-0.4-0.9-0.3-1.4-1.1-0.5-0.8-0.5-2v-6.3h-1.7v-2.5h1.7v-2.9h3.3v2.9zm10 7v-7h3.3v12.1h-3.2v-2.2h-0.1q-0.4 1.1-1.4 1.7-0.9 0.7-2.3 0.7-1.2 0-2.1-0.6-0.9-0.5-1.5-1.6-0.5-1-0.5-2.4v-7.7h3.4v7.1q0 1.1 0.5 1.7 0.6 0.6 1.6 0.6 0.6 0 1.1-0.2 0.5-0.3 0.8-0.9 0.4-0.5 0.4-1.3zm10.4 5.3q-1.4 0-2.5-0.7-1.1-0.7-1.7-2.1-0.7-1.4-0.7-3.4 0-2.1 0.7-3.5 0.7-1.3 1.8-2 1.1-0.7 2.4-0.7 1 0 1.7 0.3 0.7 0.4 1.1 0.9 0.4 0.5 0.6 1h0.2v-6.1h3.3v16.1h-3.3v-1.9h-0.2q-0.2 0.5-0.6 1-0.4 0.5-1.1 0.8-0.7 0.3-1.7 0.3zm1.1-2.7q0.8 0 1.4-0.4 0.5-0.5 0.8-1.3 0.3-0.8 0.3-1.8 0-1.1-0.3-1.9-0.3-0.8-0.8-1.2-0.6-0.5-1.4-0.5-0.8 0-1.4 0.5-0.6 0.4-0.9 1.2-0.3 0.8-0.3 1.9 0 1 0.3 1.8 0.3 0.8 0.9 1.3 0.6 0.4 1.4 0.4zm8.5 2.5v-12.1h3.4v12.1zm1.7-13.6q-0.8 0-1.3-0.5-0.5-0.5-0.5-1.2 0-0.7 0.5-1.2 0.5-0.5 1.3-0.5 0.7 0 1.2 0.5 0.6 0.5 0.6 1.2 0 0.7-0.6 1.2-0.5 0.5-1.2 0.5zm9.8 13.8q-1.9 0-3.2-0.7-1.3-0.8-2.1-2.2-0.7-1.4-0.7-3.3 0-1.9 0.7-3.3 0.8-1.4 2.1-2.1 1.3-0.8 3.2-0.8 1.8 0 3.1 0.8 1.4 0.7 2.1 2.1 0.7 1.4 0.7 3.3 0 1.9-0.7 3.3-0.7 1.4-2.1 2.2-1.3 0.7-3.1 0.7zm0-2.6q0.8 0 1.4-0.4 0.5-0.5 0.8-1.3 0.3-0.9 0.3-1.9 0-1.1-0.3-1.9-0.3-0.8-0.8-1.3-0.6-0.5-1.4-0.5-0.9 0-1.4 0.5-0.6 0.5-0.9 1.3-0.3 0.8-0.3 1.9 0 1 0.3 1.9 0.3 0.8 0.9 1.3 0.5 0.4 1.4 0.4z"/><path class="a" d="m54 20h26v26h-26z"/><path fill-rule="evenodd" d="m50.3 31q-0.1-0.4-0.2-0.8l-0.1-0.9q-0.4-2.7 0.2-5.7 0.5-3.1 2-5.7 1.4-2.6 3.7-4.5 2.3-1.8 5.2-2.2 3-0.5 5.8 0.7 2.7 1.2 5.2 3.1 2.3 2 4.4 4.5 2.1 2.4 3.8 4.6l0.1-0.2q-1.7-2.3-3.7-4.9-2.1-2.6-4.5-4.5-2.5-2.1-5.2-3.3-2.8-1.2-6-0.8-2.6 0.4-4.5 1.7-2 1.3-3.4 3.2-1.5 1.8-2.4 4.1-1 2.3-1.5 4.5-0.1-2.7 0.5-5.2 0.5-2.6 2-4.7 1.5-2.1 3.7-3.5 2.2-1.5 5.1-1.9 3.2-0.4 6.3 0.7 3 1.1 5.7 3 2.6 2 5 4.5 2.2 2.4 4.1 4.8 1.6-3 3.6-6 2-3 4.5-5.6 2.5-2.5 5.7-4.3 3-1.8 6.7-2.4 3.8-0.5 7.2 0.7 3.4 1.2 6.5 3.5 3 2.3 5.6 5.5 2.6 3.1 4.5 6.5 1.9 3.3 3.1 6.7 1.3 3.3 1.7 6.1 0.7 4.9-0.1 10.3-0.7 5.4-2.9 10.1-2.2 4.6-5.9 7.9-3.7 3.4-9 4.2-4.6 0.6-8.8-0.9-4.4-1.6-8.2-4.4-3.8-2.8-7-6.4-3.2-3.6-5.5-7-2.7 3.4-6.3 6.4-3.7 3-8.4 3.7-2.8 0.4-5.4-0.5-2.5-0.9-4.6-2.6-2.2-1.7-4-4-1.7-2.3-2.9-4.6 0.5-0.4 0.9-1 0.4-0.7 0.9-0.9 0.5-0.1 1.5 1.3 0.9 1.3 2.4 2.9 1.4 1.4 3.3 2.7 1.9 1.1 4.5 0.8l0.7-0.1-0.3-1q-1.6 0.3-3.1-0.6-1.7-1-3.1-2.3-1.4-1.5-2.3-3-1-1.5-1.1-2.5-0.2-1.3 0.1-2.8 0.4-1.4 1.2-2.4 0.5 0.9 1.4 2.5 0.9 1.5 1.9 3 1.1 1.4 2.5 2.5 1.3 1 2.7 0.8 1-0.2 2.6-1.5 1.5-1.4 3.2-3.2 1.6-1.7 3-3.6 1.3-1.8 1.8-2.8-0.7-1.1-2.3-3.2-1.7-2.2-3.7-4.2-2.1-2.1-4.1-3.6-2.1-1.4-3.7-1.2-0.8 0.1-1.2 0.6-0.4 0.5-0.7 1.2-0.3 0.6-0.7 1.2-0.4 0.6-1.1 0.9l-0.6-0.4q0.3-0.8 0.6-1.7 0.2-0.9 0.6-1.7 0.4-0.9 1.1-1.4 0.6-0.6 1.5-0.7 1.4-0.2 2.8 0.6 1.3 0.8 2.3 1.4-1-0.9-2.5-1.8-1.4-0.9-2.9-0.6-1 0.1-1.6 0.8-0.8 0.7-1.4 1.8-0.7 0.9-1.1 2.1-0.4 1-0.6 1.9l-1 0.5q-0.1 0.7-0.4 2.2-0.3 1.3-0.8 2.7-0.5 1.4-1 2.6-0.5 1-1.1 1.1-1.1 0.2-1.6-1.2-0.7-1.4-0.9-2.2zm52.8-14.4q-3.1 0.5-5.4 2.8-2.2 2.2-3.7 5.2-1.6 3-2.7 5.9-1.3 2.9-2.6 4.7 1.8 2.4 4 5.4 2.1 3 4.6 5.6 2.6 2.7 5.7 4.2 2.9 1.6 6.4 1.1 3.1-0.5 5.2-2.1 2-1.6 3.1-3.8 1-2.2 1.3-4.8 0.2-2.7-0.2-5.1-0.5-4.1-2.4-8-2-3.8-4.9-6.5l-0.5-0.1q2.7 3 4.5 6.7 1.7 3.7 2.3 7.7 0.3 2.3 0.1 4.9-0.2 2.4-1.2 4.7-1 2.1-2.9 3.7-1.8 1.4-4.9 1.9-2.4 0.3-4.6-0.6-2.2-0.9-3.9-2.5-1.9-1.7-3.4-3.7-1.5-2.1-2.8-4.2 1.4 2.1 2.9 4 1.5 2 3.2 3.7 1.8 1.6 3.9 2.5 2 0.8 4.6 0.5 3-0.5 4.9-1.9 1.8-1.5 2.8-3.6 0.9-2.1 1.1-4.6 0.1-2.5-0.2-4.9-0.2-0.8-0.3-1.6-0.2-0.7-0.4-1.6-0.4-1.6-1.8-4.4-1.4-2.7-3.3-5.3-1.9-2.6-4.1-4.4-2.3-1.8-4.4-1.5zm-18.6 27.8q2.4 3.5 4.9 6.8 2.6 3.3 5.6 5.7 2.8 2.4 6.3 3.6 3.5 1.3 7.5 1-3.7 0.2-7-1.1-3.3-1.3-6.3-3.8-3-2.4-5.6-5.7-2.5-3.3-4.8-7zm3.9-7.2q1.7 2.8 3.7 5.9 2.1 3 4.7 5.5 2.5 2.4 5.7 3.8 3 1.4 6.8 0.8 3-0.4 5.5-2.1 2-1.3 3.4-3.3-1.4 2-3.4 3.2-2.6 1.6-5.5 2-3.7 0.5-6.8-0.9-3-1.5-5.5-3.9-2.5-2.5-4.6-5.5-2.2-3-4-5.5zm-10.8-6.1q-1.1-1.4-2.4-3-1.4-1.6-2.7-2.6l4.8 6.3zm41.1 15.7q-0.1 0.1-0.2 0.3 0.1-0.1 0.2-0.3zm-0.2 0.4l-0.3 0.6z"/><path fill-rule="evenodd" d="m82.8 36q0.2 0.4 0.2 0.9l0.2 0.8q0.3 2.7-0.2 5.8-0.6 3-2.1 5.7-1.4 2.6-3.7 4.4-2.2 1.9-5.1 2.3-3.1 0.4-5.9-0.7-2.6-1.2-5.1-3.2-2.4-1.9-4.5-4.4-2.1-2.5-3.7-4.6l-0.2 0.2q1.7 2.3 3.8 4.9 2.1 2.5 4.4 4.5 2.5 2.1 5.2 3.2 2.8 1.3 6.1 0.8 2.6-0.3 4.5-1.7 2-1.3 3.4-3.1 1.5-1.9 2.4-4.2 1-2.2 1.4-4.5 0.2 2.8-0.5 5.3-0.5 2.6-1.9 4.6-1.5 2.1-3.7 3.5-2.2 1.5-5.2 1.9-3.2 0.5-6.2-0.6-3-1.1-5.7-3.1-2.7-1.9-5-4.4-2.2-2.5-4.1-4.9-1.7 3-3.7 6.1-2 3-4.5 5.5-2.5 2.6-5.7 4.3-3 1.9-6.7 2.4-3.7 0.5-7.2-0.6-3.4-1.2-6.4-3.5-3.1-2.3-5.6-5.5-2.7-3.2-4.6-6.5-1.9-3.4-3.1-6.7-1.2-3.4-1.6-6.2-0.7-4.8 0.1-10.2 0.7-5.4 2.9-10.1 2.2-4.6 5.9-8 3.7-3.4 9-4.1 4.5-0.6 8.8 0.9 4.4 1.5 8.2 4.3 3.8 2.9 6.9 6.4 3.3 3.6 5.5 7.1 2.7-3.4 6.4-6.4 3.6-3.1 8.4-3.7 2.8-0.4 5.3 0.4 2.6 1 4.7 2.7 2.2 1.6 3.9 3.9 1.8 2.3 3 4.7-0.5 0.4-1 1-0.3 0.7-0.8 0.9-0.6 0.1-1.5-1.4-1-1.2-2.4-2.8-1.4-1.5-3.4-2.7-1.9-1.2-4.5-0.8l-0.6 0.1 0.2 0.9q1.6-0.2 3.2 0.7 1.7 0.9 3.1 2.3 1.4 1.4 2.2 3 1 1.5 1.2 2.5 0.1 1.3-0.2 2.7-0.3 1.5-1.2 2.5-0.5-0.9-1.3-2.6-0.9-1.5-2-3-1.1-1.4-2.4-2.4-1.4-1-2.8-0.8-1 0.1-2.5 1.4-1.6 1.5-3.2 3.2-1.6 1.8-3 3.6-1.3 1.9-1.8 2.8 0.7 1.1 2.3 3.2 1.6 2.2 3.6 4.2 2.1 2.2 4.2 3.6 2.1 1.5 3.7 1.3 0.7-0.1 1.1-0.6 0.5-0.5 0.7-1.2 0.4-0.6 0.7-1.2 0.5-0.6 1.1-0.9l0.6 0.3q-0.2 0.8-0.5 1.7-0.2 1-0.7 1.8-0.4 0.8-1.1 1.4-0.6 0.6-1.4 0.7-1.4 0.2-2.9-0.6-1.3-0.8-2.3-1.4 1 0.8 2.5 1.7 1.4 0.9 2.9 0.7 1-0.1 1.7-0.9 0.8-0.6 1.4-1.7 0.6-1 1-2.1 0.4-1.1 0.6-1.9l1.1-0.6q0.1-0.7 0.3-2.1 0.4-1.4 0.8-2.8 0.5-1.4 1-2.5 0.5-1.1 1.2-1.2 1-0.1 1.6 1.2 0.6 1.5 0.8 2.2zm-52.7 14.4q3.1-0.4 5.3-2.7 2.2-2.3 3.8-5.2 1.5-3 2.7-5.9 1.2-2.9 2.5-4.8-1.8-2.4-3.9-5.4-2.1-3-4.7-5.6-2.5-2.6-5.6-4.1-3-1.6-6.4-1.1-3.2 0.4-5.2 2-2 1.6-3.1 3.9-1 2.2-1.3 4.8-0.2 2.6 0.1 5.1 0.6 4.1 2.4 7.9 2 3.8 4.9 6.6h0.6q-2.7-2.9-4.6-6.6-1.7-3.7-2.3-7.7-0.3-2.4-0.1-4.9 0.2-2.5 1.2-4.7 1-2.1 2.9-3.7 1.9-1.5 4.9-1.9 2.5-0.4 4.6 0.6 2.2 0.9 4 2.5 1.9 1.7 3.4 3.7 1.5 2.1 2.7 4.1-1.4-2-2.8-4-1.5-2-3.3-3.6-1.8-1.6-3.9-2.5-2-0.9-4.5-0.5-3.1 0.4-4.9 1.9-1.8 1.5-2.8 3.6-1 2.1-1.2 4.5 0 2.6 0.3 4.9 0.1 0.9 0.2 1.7 0.2 0.7 0.4 1.5 0.5 1.6 1.9 4.4 1.3 2.8 3.2 5.4 2 2.6 4.2 4.4 2.2 1.7 4.4 1.4zm18.5-27.7q-2.3-3.6-4.9-6.8-2.5-3.3-5.5-5.8-2.9-2.3-6.4-3.6-3.4-1.2-7.5-0.9 3.8-0.2 7 1.1 3.4 1.3 6.4 3.7 3 2.5 5.5 5.8 2.5 3.2 4.8 7zm-3.8 7.1q-1.7-2.7-3.8-5.8-2.1-3-4.6-5.5-2.6-2.4-5.7-3.9-3.1-1.3-6.8-0.8-3.1 0.4-5.6 2.1-2 1.4-3.4 3.3 1.4-1.9 3.4-3.2 2.7-1.6 5.6-2 3.7-0.5 6.7 1 3.1 1.4 5.5 3.8 2.6 2.5 4.6 5.5 2.2 3 4.1 5.5zm10.8 6.2q1 1.4 2.3 3 1.5 1.5 2.7 2.6l-4.7-6.3zm-41.1-15.7q0.1-0.1 0.1-0.4-0.1 0.2-0.1 0.4zm0.1-0.5l0.4-0.6z"/></svg>