<svg width="621" height="175" viewBox="0 0 621 175" fill="none" xmlns="http://www.w3.org/2000/svg">
<path d="M137.421 66.0464C136.702 64.6133 135.601 63.4081 134.242 62.5645C132.882 61.7208 131.316 61.2717 129.718 61.2668H86.4431V9.12553C86.5359 7.21962 86.0015 5.336 84.9222 3.7654C83.8428 2.19481 82.2787 1.02457 80.4711 0.43531C78.7334 -0.138738 76.8592 -0.145189 75.1177 0.416882C73.3761 0.978954 71.8567 2.08064 70.7775 3.56379L1.5376 99.1562C0.670071 100.415 0.149153 101.882 0.0275664 103.408C-0.0940199 104.934 0.188041 106.465 0.845199 107.846C1.45037 109.426 2.50166 110.793 3.87003 111.781C5.2384 112.769 6.86429 113.335 8.54814 113.408H51.8231V165.549C51.8244 167.382 52.4027 169.167 53.4753 170.65C54.5479 172.133 56.0598 173.237 57.795 173.805C58.6646 174.076 59.5678 174.222 60.4781 174.24C61.8437 174.243 63.1908 173.922 64.4092 173.303C65.6277 172.684 66.6829 171.784 67.4886 170.677L136.729 75.0843C137.661 73.7877 138.219 72.2578 138.341 70.6632C138.463 69.0686 138.145 67.471 137.421 66.0464ZM69.1331 138.784V104.718C69.1331 102.413 68.2212 100.203 66.5981 98.573C64.975 96.9433 62.7735 96.0277 60.4781 96.0277H25.8581L69.1331 35.8914V69.957C69.1331 72.2618 70.0449 74.4722 71.6681 76.102C73.2912 77.7317 75.4926 78.6473 77.7881 78.6473H112.408L69.1331 138.784Z" fill="#42FF00"/>
<path d="M201.523 74.1373C201.29 71.7885 200.29 69.9637 198.524 68.6632C196.757 67.3626 194.36 66.7123 191.332 66.7123C189.274 66.7123 187.537 67.0035 186.12 67.5858C184.703 68.1488 183.615 68.9349 182.858 69.9443C182.121 70.9537 181.752 72.099 181.752 73.3802C181.713 74.4479 181.936 75.3796 182.422 76.1755C182.926 76.9714 183.615 77.6605 184.489 78.2429C185.363 78.8058 186.372 79.3008 187.517 79.7278C188.663 80.1355 189.885 80.4849 191.186 80.7761L196.544 82.0573C199.145 82.6396 201.533 83.4161 203.707 84.3867C205.881 85.3573 207.764 86.5511 209.355 87.9681C210.947 89.3852 212.18 91.0546 213.053 92.9764C213.946 94.8981 214.402 97.1013 214.422 99.586C214.402 103.235 213.471 106.4 211.627 109.078C209.802 111.738 207.162 113.805 203.707 115.28C200.271 116.736 196.126 117.464 191.273 117.464C186.459 117.464 182.266 116.727 178.695 115.251C175.142 113.776 172.366 111.592 170.367 108.7C168.387 105.788 167.348 102.187 167.251 97.8972H179.452C179.588 99.8966 180.16 101.566 181.17 102.905C182.198 104.225 183.567 105.225 185.275 105.905C187.003 106.565 188.954 106.895 191.128 106.895C193.263 106.895 195.117 106.584 196.689 105.963C198.281 105.342 199.514 104.478 200.387 103.371C201.261 102.265 201.698 100.993 201.698 99.5569C201.698 98.2175 201.3 97.0916 200.504 96.1793C199.727 95.2669 198.582 94.4905 197.068 93.8499C195.573 93.2093 193.739 92.6269 191.565 92.1028L185.071 90.4722C180.044 89.2493 176.074 87.3372 173.162 84.7361C170.251 82.1349 168.804 78.6311 168.824 74.2246C168.804 70.614 169.765 67.4596 171.706 64.7614C173.667 62.0632 176.356 59.957 179.772 58.4429C183.188 56.9288 187.071 56.1717 191.419 56.1717C195.845 56.1717 199.708 56.9288 203.008 58.4429C206.327 59.957 208.909 62.0632 210.753 64.7614C212.597 67.4596 213.548 70.5849 213.607 74.1373H201.523ZM222.669 116.62V71.8952H234.491V79.7861H235.015C235.947 77.1655 237.5 75.0982 239.674 73.584C241.848 72.0699 244.449 71.3129 247.478 71.3129C250.545 71.3129 253.156 72.0796 255.31 73.6132C257.465 75.1273 258.901 77.1849 259.62 79.7861H260.086C260.998 77.2237 262.648 75.1758 265.036 73.6423C267.443 72.0893 270.286 71.3129 273.567 71.3129C277.741 71.3129 281.128 72.6426 283.729 75.302C286.35 77.942 287.66 81.6884 287.66 86.5414V116.62H275.285V88.9872C275.285 86.5025 274.625 84.639 273.305 83.3967C271.985 82.1543 270.335 81.5331 268.355 81.5331C266.103 81.5331 264.346 82.2514 263.085 83.6878C261.823 85.1049 261.192 86.9781 261.192 89.3075V116.62H249.166V88.7252C249.166 86.5317 248.536 84.7846 247.274 83.484C246.031 82.1834 244.391 81.5331 242.353 81.5331C240.975 81.5331 239.732 81.8826 238.626 82.5814C237.539 83.2608 236.675 84.2217 236.034 85.464C235.394 86.687 235.074 88.1234 235.074 89.7734V116.62H222.669ZM310.212 117.464C307.358 117.464 304.815 116.969 302.583 115.979C300.35 114.97 298.584 113.485 297.283 111.524C296.002 109.544 295.362 107.079 295.362 104.128C295.362 101.644 295.818 99.5569 296.73 97.8681C297.642 96.1793 298.885 94.8205 300.457 93.7916C302.029 92.7628 303.815 91.9864 305.815 91.4622C307.834 90.9381 309.949 90.5693 312.162 90.3558C314.764 90.084 316.86 89.8317 318.452 89.5987C320.044 89.3464 321.199 88.9775 321.917 88.4922C322.635 88.007 322.994 87.2887 322.994 86.3375V86.1628C322.994 84.3187 322.412 82.892 321.247 81.8825C320.102 80.8731 318.471 80.3684 316.355 80.3684C314.123 80.3684 312.347 80.8634 311.027 81.8534C309.707 82.824 308.833 84.047 308.406 85.5223L296.934 84.5905C297.516 81.8728 298.662 79.524 300.37 77.544C302.078 75.5446 304.281 74.0111 306.979 72.9434C309.697 71.8564 312.842 71.3129 316.414 71.3129C318.898 71.3129 321.276 71.604 323.547 72.1864C325.838 72.7687 327.866 73.6714 329.633 74.8943C331.419 76.1173 332.826 77.6896 333.855 79.6114C334.884 81.5137 335.398 83.7946 335.398 86.454V116.62H323.635V110.418H323.285C322.567 111.815 321.606 113.048 320.403 114.116C319.199 115.164 317.753 115.989 316.064 116.591C314.375 117.173 312.424 117.464 310.212 117.464ZM313.764 108.904C315.589 108.904 317.2 108.545 318.597 107.826C319.995 107.089 321.092 106.099 321.888 104.856C322.684 103.614 323.082 102.207 323.082 100.634V95.8881C322.693 96.1405 322.159 96.3734 321.48 96.5869C320.82 96.7811 320.073 96.9655 319.238 97.1402C318.403 97.2955 317.569 97.4411 316.734 97.5769C315.899 97.6934 315.142 97.8002 314.463 97.8972C313.007 98.1108 311.735 98.4505 310.648 98.9163C309.561 99.3822 308.717 100.013 308.115 100.809C307.513 101.585 307.212 102.556 307.212 103.721C307.212 105.41 307.824 106.7 309.047 107.593C310.289 108.467 311.862 108.904 313.764 108.904ZM345.022 116.62V71.8952H357.047V79.6987H357.513C358.328 76.9229 359.697 74.8264 361.619 73.4093C363.54 71.9729 365.753 71.2546 368.257 71.2546C368.879 71.2546 369.548 71.2935 370.267 71.3711C370.985 71.4487 371.616 71.5555 372.159 71.6914V82.6978C371.577 82.5231 370.771 82.3678 369.742 82.232C368.714 82.0961 367.772 82.0281 366.918 82.0281C365.093 82.0281 363.463 82.4261 362.026 83.222C360.609 83.9984 359.483 85.0855 358.649 86.4831C357.833 87.8808 357.426 89.4919 357.426 91.3167V116.62H345.022ZM404.603 71.8952V81.2128H377.67V71.8952H404.603ZM383.784 61.1799H396.188V102.876C396.188 104.022 396.363 104.915 396.713 105.555C397.062 106.176 397.547 106.613 398.168 106.865C398.809 107.118 399.547 107.244 400.381 107.244C400.964 107.244 401.546 107.195 402.128 107.098C402.711 106.982 403.157 106.895 403.468 106.836L405.419 116.067C404.798 116.261 403.924 116.484 402.798 116.736C401.672 117.008 400.304 117.173 398.693 117.231C395.703 117.348 393.083 116.95 390.831 116.037C388.599 115.125 386.861 113.708 385.619 111.786C384.376 109.865 383.765 107.438 383.784 104.507V61.1799ZM431.894 116.62V56.987H444.502V106.225H470.067V116.62H431.894ZM490.937 117.464C488.084 117.464 485.541 116.969 483.308 115.979C481.076 114.97 479.31 113.485 478.009 111.524C476.728 109.544 476.087 107.079 476.087 104.128C476.087 101.644 476.543 99.5569 477.456 97.8681C478.368 96.1793 479.61 94.8205 481.183 93.7916C482.755 92.7628 484.541 91.9864 486.54 91.4622C488.559 90.9381 490.675 90.5693 492.888 90.3558C495.489 90.084 497.586 89.8317 499.177 89.5987C500.769 89.3464 501.924 88.9775 502.642 88.4922C503.361 88.007 503.72 87.2887 503.72 86.3375V86.1628C503.72 84.3187 503.137 82.892 501.973 81.8825C500.827 80.8731 499.197 80.3684 497.081 80.3684C494.849 80.3684 493.072 80.8634 491.752 81.8534C490.432 82.824 489.559 84.047 489.132 85.5223L477.66 84.5905C478.242 81.8728 479.387 79.524 481.095 77.544C482.804 75.5446 485.007 74.0111 487.705 72.9434C490.423 71.8564 493.567 71.3129 497.139 71.3129C499.624 71.3129 502.002 71.604 504.273 72.1864C506.564 72.7687 508.592 73.6714 510.359 74.8943C512.144 76.1173 513.552 77.6896 514.581 79.6114C515.609 81.5137 516.124 83.7946 516.124 86.454V116.62H504.36V110.418H504.011C503.293 111.815 502.332 113.048 501.128 114.116C499.925 115.164 498.479 115.989 496.79 116.591C495.101 117.173 493.15 117.464 490.937 117.464ZM494.489 108.904C496.314 108.904 497.925 108.545 499.323 107.826C500.721 107.089 501.817 106.099 502.613 104.856C503.409 103.614 503.807 102.207 503.807 100.634V95.8881C503.419 96.1405 502.885 96.3734 502.206 96.5869C501.546 96.7811 500.798 96.9655 499.964 97.1402C499.129 97.2955 498.294 97.4411 497.459 97.5769C496.625 97.6934 495.868 97.8002 495.188 97.8972C493.732 98.1108 492.461 98.4505 491.374 98.9163C490.287 99.3822 489.442 100.013 488.841 100.809C488.239 101.585 487.938 102.556 487.938 103.721C487.938 105.41 488.549 106.7 489.772 107.593C491.015 108.467 492.587 108.904 494.489 108.904ZM525.98 116.62V56.987H538.384V79.4076H538.763C539.306 78.204 540.093 76.9811 541.121 75.7387C542.17 74.477 543.528 73.4287 545.198 72.594C546.887 71.7399 548.983 71.3129 551.487 71.3129C554.748 71.3129 557.757 72.167 560.514 73.8752C563.27 75.564 565.473 78.1167 567.123 81.5331C568.773 84.9302 569.598 89.1911 569.598 94.3158C569.598 99.3046 568.793 103.517 567.182 106.953C565.59 110.369 563.416 112.961 560.659 114.727C557.922 116.474 554.855 117.348 551.458 117.348C549.051 117.348 547.003 116.95 545.314 116.154C543.645 115.358 542.276 114.358 541.209 113.155C540.141 111.932 539.326 110.699 538.763 109.457H538.21V116.62H525.98ZM538.122 94.2575C538.122 96.9169 538.491 99.2366 539.229 101.217C539.966 103.197 541.034 104.74 542.432 105.846C543.829 106.933 545.528 107.477 547.527 107.477C549.546 107.477 551.254 106.924 552.652 105.817C554.05 104.691 555.107 103.138 555.826 101.158C556.563 99.159 556.932 96.8587 556.932 94.2575C556.932 91.6758 556.573 89.4046 555.855 87.444C555.137 85.4834 554.079 83.9499 552.681 82.8434C551.283 81.737 549.565 81.1837 547.527 81.1837C545.508 81.1837 543.8 81.7176 542.402 82.7852C541.024 83.8528 539.966 85.367 539.229 87.3275C538.491 89.2881 538.122 91.5981 538.122 94.2575ZM615.087 84.6487L603.731 85.3475C603.537 84.377 603.12 83.5034 602.479 82.727C601.839 81.9311 600.994 81.3002 599.946 80.8343C598.917 80.349 597.685 80.1064 596.248 80.1064C594.326 80.1064 592.706 80.514 591.386 81.3293C590.066 82.1252 589.406 83.1928 589.406 84.5323C589.406 85.5999 589.833 86.5025 590.687 87.2402C591.541 87.9778 593.006 88.5699 595.084 89.0164L603.178 90.6469C607.526 91.5399 610.768 92.9764 612.903 94.9564C615.039 96.9363 616.106 99.5375 616.106 102.76C616.106 105.691 615.243 108.263 613.515 110.476C611.807 112.689 609.458 114.417 606.468 115.659C603.498 116.882 600.072 117.493 596.19 117.493C590.269 117.493 585.552 116.261 582.039 113.795C578.545 111.311 576.497 107.933 575.895 103.663L588.095 103.022C588.464 104.827 589.357 106.205 590.774 107.157C592.191 108.088 594.006 108.554 596.219 108.554C598.393 108.554 600.14 108.137 601.46 107.302C602.8 106.448 603.479 105.351 603.498 104.012C603.479 102.886 603.003 101.964 602.072 101.246C601.14 100.508 599.704 99.9452 597.762 99.5569L590.017 98.0137C585.649 97.1402 582.398 95.6261 580.263 93.4714C578.147 91.3167 577.089 88.5699 577.089 85.2311C577.089 82.3581 577.865 79.8831 579.418 77.8061C580.991 75.729 583.194 74.1276 586.028 73.0017C588.881 71.8758 592.22 71.3129 596.044 71.3129C601.693 71.3129 606.138 72.5067 609.38 74.8943C612.641 77.282 614.544 80.5334 615.087 84.6487Z" fill="black"/>
</svg>
